<svg xmlns="http://www.w3.org/2000/svg"  viewBox="0 0 100 100" width="100px" height="100px"><path fill="#c7ede6" d="M87.215,56.71C88.35,54.555,89,52.105,89,49.5c0-6.621-4.159-12.257-10.001-14.478 C78.999,35.015,79,35.008,79,35c0-11.598-9.402-21-21-21c-9.784,0-17.981,6.701-20.313,15.757C36.211,29.272,34.638,29,33,29 c-7.692,0-14.023,5.793-14.89,13.252C12.906,43.353,9,47.969,9,53.5C9,59.851,14.149,65,20.5,65c0.177,0,0.352-0.012,0.526-0.022 C21.022,65.153,21,65.324,21,65.5C21,76.822,30.178,86,41.5,86c6.437,0,12.175-2.972,15.934-7.614C59.612,80.611,62.64,82,66,82 c4.65,0,8.674-2.65,10.666-6.518C77.718,75.817,78.837,76,80,76c6.075,0,11-4.925,11-11C91,61.689,89.53,58.727,87.215,56.71z"/><path fill="#fdfcef" d="M67.5,36.5V37h-3v-0.5c0,0-4.242,0-5.5,0c-2.485,0-4.5-2.015-4.5-4.5 c0-2.333,1.782-4.229,4.055-4.455C58.533,27.364,58.5,27.187,58.5,27c0-2.485,2.015-4.5,4.5-4.5c1.438,0,2.703,0.686,3.527,1.736 C66.667,21.6,68.829,19.5,71.5,19.5c2.761,0,5,2.239,5,5c0,0.446-0.077,0.87-0.187,1.282c0.642-0.777,1.6-1.282,2.687-1.282 c1.781,0,3.234,1.335,3.455,3.055C82.636,27.533,82.813,27.5,83,27.5c2.485,0,4.5,2.015,4.5,4.5s-2.015,4.5-4.5,4.5s-9.5,0-9.5,0 H67.5z"/><path fill="#472b29" d="M71.5,19c3.033,0,5.5,2.467,5.5,5.5c0,0.016,0,0.031,0,0.047C77.602,24.192,78.29,24,79,24 c1.831,0,3.411,1.261,3.858,3.005C82.905,27.002,82.952,27,83,27c2.757,0,5,2.243,5,5s-2.243,5-5,5H67.5 c-0.276,0-0.5-0.224-0.5-0.5s0.224-0.5,0.5-0.5H83c2.206,0,4-1.794,4-4s-1.794-4-4-4c-0.117,0-0.23,0.017-0.343,0.032 l-0.141,0.019c-0.021,0.003-0.041,0.004-0.062,0.004c-0.246,0-0.462-0.185-0.495-0.437C81.768,26.125,80.496,25,79,25 c-0.885,0-1.723,0.401-2.301,1.1c-0.098,0.118-0.241,0.182-0.386,0.182c-0.078,0-0.156-0.018-0.228-0.056 c-0.209-0.107-0.314-0.346-0.254-0.573C75.946,25.218,76,24.852,76,24.5c0-2.481-2.019-4.5-4.5-4.5 c-2.381,0-4.347,1.872-4.474,4.263c-0.011,0.208-0.15,0.387-0.349,0.45c-0.05,0.016-0.101,0.024-0.152,0.024 c-0.15,0-0.296-0.069-0.392-0.192C65.362,23.563,64.221,23,63,23c-2.206,0-4,1.794-4,4c0,0.117,0.017,0.23,0.032,0.343 l0.019,0.141c0.016,0.134-0.022,0.268-0.106,0.373c-0.084,0.105-0.207,0.172-0.34,0.185C56.549,28.247,55,29.949,55,32 c0,2.206,1.794,4,4,4h5.5c0.276,0,0.5,0.224,0.5,0.5S64.776,37,64.5,37H59c-2.757,0-5-2.243-5-5c0-2.397,1.689-4.413,4.003-4.877 C58.001,27.082,58,27.041,58,27c0-2.757,2.243-5,5-5c1.176,0,2.293,0.416,3.183,1.164C66.781,20.76,68.945,19,71.5,19L71.5,19z"/><path fill="#472b29" d="M73,26c1.403,0,2.609,0.999,2.913,2.341C76.28,28.119,76.699,28,77.125,28 c1.202,0,2.198,0.897,2.353,2.068C79.681,30.022,79.874,30,80.063,30c1.529,0,2.811,1.2,2.918,2.732 C82.99,32.87,82.886,32.99,82.749,33c-0.006,0-0.012,0-0.018,0c-0.13,0-0.24-0.101-0.249-0.232 c-0.089-1.271-1.151-2.268-2.419-2.268c-0.229,0-0.47,0.042-0.738,0.127c-0.022,0.007-0.045,0.01-0.067,0.01 c-0.055,0-0.11-0.02-0.156-0.054C79.038,30.537,79,30.455,79,30.375c0-1.034-0.841-1.875-1.875-1.875 c-0.447,0-0.885,0.168-1.231,0.473c-0.047,0.041-0.106,0.063-0.165,0.063c-0.032,0-0.063-0.006-0.093-0.019 c-0.088-0.035-0.148-0.117-0.155-0.212C75.377,27.512,74.288,26.5,73,26.5c-0.208,0-0.425,0.034-0.682,0.107 c-0.023,0.007-0.047,0.01-0.07,0.01c-0.109,0-0.207-0.073-0.239-0.182c-0.038-0.133,0.039-0.271,0.172-0.309 C72.483,26.04,72.744,26,73,26L73,26z"/><path fill="#472b29" d="M59.117,27.5c1.326,0,2.508,0.897,2.874,2.182c0.038,0.133-0.039,0.271-0.172,0.309 C61.795,29.997,61.772,30,61.75,30c-0.109,0-0.209-0.072-0.24-0.182C61.205,28.748,60.221,28,59.117,28 c-0.117,0-0.23,0.014-0.342,0.029c-0.012,0.002-0.023,0.003-0.035,0.003c-0.121,0-0.229-0.092-0.246-0.217 c-0.019-0.137,0.077-0.263,0.214-0.281C58.842,27.516,58.978,27.5,59.117,27.5L59.117,27.5z"/><circle cx="53" cy="51" r="24.25" fill="#78a0cf"/><path fill="#472b29" d="M53,75.95c-13.758,0-24.95-11.192-24.95-24.95c0-13.757,11.192-24.95,24.95-24.95 S77.95,37.243,77.95,51C77.95,64.758,66.758,75.95,53,75.95z M53,27.45c-12.985,0-23.55,10.564-23.55,23.55S40.015,74.55,53,74.55 S76.55,63.985,76.55,51S65.985,27.45,53,27.45z"/><path fill="#fff" d="M27.5,77h-10c-0.276,0-0.5-0.224-0.5-0.5s0.224-0.5,0.5-0.5h10c0.276,0,0.5,0.224,0.5,0.5 S27.777,77,27.5,77z"/><path fill="#fff" d="M30.5,77h-1c-0.276,0-0.5-0.224-0.5-0.5s0.224-0.5,0.5-0.5h1c0.276,0,0.5,0.224,0.5,0.5 S30.777,77,30.5,77z"/><path fill="#fff" d="M35.491,79H26.5c-0.276,0-0.5-0.224-0.5-0.5s0.224-0.5,0.5-0.5h8.991c0.276,0,0.5,0.224,0.5,0.5 S35.767,79,35.491,79z"/><path fill="#fff" d="M24.5,79h-1c-0.276,0-0.5-0.224-0.5-0.5s0.224-0.5,0.5-0.5h1c0.276,0,0.5,0.224,0.5,0.5 S24.777,79,24.5,79z"/><path fill="#fff" d="M21.5,79h-2c-0.276,0-0.5-0.224-0.5-0.5s0.224-0.5,0.5-0.5h2c0.276,0,0.5,0.224,0.5,0.5 S21.777,79,21.5,79z"/><path fill="#fff" d="M27.5,81h-2c-0.276,0-0.5-0.224-0.5-0.5s0.224-0.5,0.5-0.5h2c0.276,0,0.5,0.224,0.5,0.5 S27.776,81,27.5,81z"/><path fill="#fff" d="M30.5,72c-0.177,0-0.823,0-1,0c-0.276,0-0.5,0.224-0.5,0.5c0,0.276,0.224,0.5,0.5,0.5 c0.177,0,0.823,0,1,0c0.276,0,0.5-0.224,0.5-0.5C31,72.224,30.776,72,30.5,72z"/><path fill="#fff" d="M30.5,74c-0.177,0-4.823,0-5,0c-0.276,0-0.5,0.224-0.5,0.5c0,0.276,0.224,0.5,0.5,0.5 c0.177,0,4.823,0,5,0c0.276,0,0.5-0.224,0.5-0.5C31,74.224,30.776,74,30.5,74z"/><path fill="#fff" d="M35.5,76c-0.177,0-2.823,0-3,0c-0.276,0-0.5,0.224-0.5,0.5c0,0.276,0.224,0.5,0.5,0.5 c0.177,0,2.823,0,3,0c0.276,0,0.5-0.224,0.5-0.5C36,76.224,35.776,76,35.5,76z"/><g><path fill="#fff" d="M86.5,70h-10c-0.276,0-0.5-0.224-0.5-0.5s0.224-0.5,0.5-0.5h10c0.276,0,0.5,0.224,0.5,0.5 S86.776,70,86.5,70z"/><path fill="#fff" d="M90.5,70h-2c-0.276,0-0.5-0.224-0.5-0.5s0.224-0.5,0.5-0.5h2c0.276,0,0.5,0.224,0.5,0.5 S90.776,70,90.5,70z"/><path fill="#fff" d="M95.5,72h-10c-0.276,0-0.5-0.224-0.5-0.5s0.224-0.5,0.5-0.5h10c0.276,0,0.5,0.224,0.5,0.5 S95.777,72,95.5,72z"/><path fill="#fff" d="M83.5,72h-1c-0.276,0-0.5-0.224-0.5-0.5s0.224-0.5,0.5-0.5h1c0.276,0,0.5,0.224,0.5,0.5 S83.776,72,83.5,72z"/><path fill="#fff" d="M80.47,72H78.5c-0.276,0-0.5-0.224-0.5-0.5s0.224-0.5,0.5-0.5h1.97c0.276,0,0.5,0.224,0.5,0.5 S80.746,72,80.47,72z"/><path fill="#fff" d="M89.5,68h-5c-0.276,0-0.5-0.224-0.5-0.5s0.224-0.5,0.5-0.5h5c0.276,0,0.5,0.224,0.5,0.5 S89.777,68,89.5,68z"/><path fill="#fff" d="M86.5,74h-2c-0.276,0-0.5-0.224-0.5-0.5s0.224-0.5,0.5-0.5h2c0.276,0,0.5,0.224,0.5,0.5 S86.776,74,86.5,74z"/></g><g><path fill="#472b29" d="M73.889,58.17c-0.026,0-0.053-0.004-0.078-0.013l-2.848-0.942 c-0.132-0.043-0.202-0.185-0.159-0.315c0.044-0.132,0.191-0.201,0.315-0.159l2.848,0.942c0.132,0.043,0.202,0.185,0.159,0.315 C74.091,58.104,73.993,58.17,73.889,58.17z"/><path fill="#472b29" d="M70.711,64.275c-0.052,0-0.104-0.016-0.148-0.049l-2.416-1.779 c-0.111-0.082-0.135-0.238-0.053-0.35s0.239-0.134,0.35-0.053l2.416,1.779c0.111,0.082,0.135,0.238,0.053,0.35 C70.863,64.24,70.787,64.275,70.711,64.275z"/><path fill="#472b29" d="M65.816,69.104c-0.077,0-0.154-0.036-0.203-0.104l-1.752-2.437 c-0.08-0.111-0.055-0.268,0.058-0.349c0.109-0.079,0.268-0.056,0.349,0.058l1.752,2.437c0.08,0.111,0.055,0.268-0.058,0.349 C65.918,69.089,65.867,69.104,65.816,69.104z"/><path fill="#472b29" d="M59.673,72.2c-0.106,0-0.204-0.067-0.238-0.174l-0.91-2.858c-0.042-0.132,0.031-0.272,0.162-0.314 c0.134-0.039,0.272,0.03,0.314,0.162l0.91,2.858c0.042,0.132-0.031,0.272-0.162,0.314C59.724,72.196,59.698,72.2,59.673,72.2z"/><path fill="#472b29" d="M52.873,73.238L52.873,73.238c-0.14-0.001-0.251-0.113-0.25-0.251l0.018-3 c0.001-0.138,0.112-0.249,0.25-0.249h0.001c0.139,0.001,0.25,0.113,0.249,0.251l-0.018,3 C53.122,73.127,53.011,73.238,52.873,73.238z"/><path fill="#472b29" d="M46.08,72.139c-0.026,0-0.053-0.004-0.078-0.013c-0.132-0.043-0.202-0.185-0.159-0.315 l0.942-2.848c0.044-0.132,0.19-0.201,0.315-0.159c0.132,0.043,0.202,0.185,0.159,0.315l-0.942,2.848 C46.282,72.072,46.185,72.139,46.08,72.139z"/><path fill="#472b29" d="M39.975,68.961c-0.052,0-0.104-0.016-0.148-0.049c-0.111-0.082-0.135-0.238-0.053-0.35 l1.779-2.416c0.082-0.11,0.239-0.135,0.35-0.053c0.111,0.082,0.135,0.238,0.053,0.35l-1.779,2.416 C40.127,68.926,40.051,68.961,39.975,68.961z"/><path fill="#472b29" d="M35.146,64.066c-0.077,0-0.154-0.036-0.203-0.104c-0.08-0.111-0.055-0.268,0.058-0.349 l2.437-1.752c0.109-0.079,0.268-0.056,0.349,0.058c0.08,0.111,0.055,0.268-0.058,0.349l-2.437,1.752 C35.247,64.051,35.196,64.066,35.146,64.066z"/><path fill="#472b29" d="M32.05,57.923c-0.106,0-0.204-0.067-0.238-0.174c-0.042-0.132,0.031-0.272,0.162-0.314l2.858-0.91 c0.134-0.039,0.272,0.031,0.314,0.162c0.042,0.132-0.031,0.272-0.162,0.314l-2.858,0.91 C32.101,57.919,32.075,57.923,32.05,57.923z"/><path fill="#472b29" d="M34.012,51.141c0,0-0.001,0-0.002,0l-3-0.019c-0.138,0-0.249-0.113-0.248-0.251 s0.112-0.249,0.25-0.249c0.001,0,0.001,0,0.002,0l3,0.018c0.138,0.001,0.249,0.113,0.248,0.251 C34.261,51.029,34.149,51.141,34.012,51.141z"/><path fill="#472b29" d="M34.959,45.272c-0.026,0-0.053-0.004-0.078-0.013l-2.848-0.943 c-0.132-0.043-0.202-0.185-0.159-0.316c0.045-0.131,0.19-0.202,0.315-0.159l2.848,0.943c0.132,0.043,0.202,0.185,0.159,0.316 C35.161,45.206,35.063,45.272,34.959,45.272z"/><path fill="#472b29" d="M37.705,40.004c-0.052,0-0.104-0.016-0.148-0.049l-2.416-1.779 c-0.111-0.082-0.135-0.238-0.053-0.35c0.082-0.111,0.239-0.134,0.35-0.053l2.416,1.779c0.111,0.082,0.135,0.238,0.053,0.35 C37.857,39.969,37.781,40.004,37.705,40.004z"/><path fill="#472b29" d="M41.936,35.832c-0.077,0-0.154-0.036-0.203-0.104l-1.752-2.436 c-0.08-0.112-0.055-0.269,0.058-0.349c0.109-0.08,0.267-0.056,0.349,0.057l1.752,2.436c0.08,0.112,0.055,0.269-0.058,0.349 C42.037,35.817,41.986,35.832,41.936,35.832z"/><path fill="#472b29" d="M47.237,33.159c-0.106,0-0.204-0.068-0.238-0.174l-0.91-2.858 c-0.042-0.131,0.031-0.272,0.162-0.314c0.134-0.039,0.272,0.031,0.314,0.163l0.91,2.858c0.042,0.131-0.031,0.272-0.162,0.314 C47.288,33.155,47.263,33.159,47.237,33.159z"/><path fill="#472b29" d="M53.109,32.261L53.109,32.261c-0.14-0.001-0.251-0.113-0.25-0.251l0.018-3 c0.001-0.138,0.112-0.249,0.25-0.249h0.001c0.139,0.001,0.25,0.113,0.249,0.251l-0.018,3 C53.358,32.15,53.247,32.261,53.109,32.261z"/><path fill="#472b29" d="M58.978,33.209c-0.026,0-0.053-0.004-0.078-0.013c-0.132-0.043-0.202-0.185-0.159-0.316 l0.942-2.848c0.044-0.131,0.191-0.202,0.315-0.159c0.132,0.043,0.202,0.185,0.159,0.316l-0.942,2.848 C59.18,33.143,59.082,33.209,58.978,33.209z"/><path fill="#472b29" d="M64.246,35.955c-0.052,0-0.104-0.016-0.148-0.049c-0.111-0.082-0.135-0.238-0.053-0.35 l1.779-2.415c0.083-0.111,0.239-0.134,0.35-0.053c0.111,0.082,0.135,0.238,0.053,0.35l-1.779,2.415 C64.398,35.919,64.322,35.955,64.246,35.955z"/><path fill="#472b29" d="M68.418,40.185c-0.077,0-0.154-0.036-0.203-0.104c-0.08-0.112-0.055-0.269,0.058-0.349 l2.437-1.751c0.11-0.081,0.268-0.056,0.349,0.057c0.08,0.112,0.055,0.269-0.058,0.349l-2.437,1.751 C68.52,40.17,68.469,40.185,68.418,40.185z"/><path fill="#472b29" d="M71.092,45.487c-0.106,0-0.204-0.068-0.238-0.174c-0.042-0.131,0.031-0.272,0.162-0.314 l2.858-0.91c0.133-0.039,0.272,0.031,0.314,0.163c0.042,0.131-0.031,0.272-0.162,0.314l-2.858,0.91 C71.143,45.483,71.117,45.487,71.092,45.487z"/><path fill="#472b29" d="M74.988,51.377L74.988,51.377l-3.001-0.018c-0.139-0.001-0.25-0.113-0.249-0.251 c0.001-0.138,0.112-0.249,0.25-0.249h0.001l3,0.018c0.139,0.001,0.25,0.113,0.249,0.251S75.126,51.377,74.988,51.377z"/></g><g><polygon fill="#ee3e54" points="68.556,35.444 50.879,48.879 55.121,53.121"/></g><g><polygon fill="#fff" points="37.444,66.556 55.121,53.121 50.879,48.879"/></g><g><path fill="#472b29" d="M45.131,56.691c-0.053,0-0.106-0.017-0.151-0.051c-0.109-0.084-0.131-0.24-0.048-0.351l2.935-3.861 c0.085-0.109,0.241-0.131,0.351-0.048c0.109,0.084,0.131,0.24,0.048,0.351l-2.935,3.861C45.28,56.657,45.206,56.691,45.131,56.691z"/></g><g><path fill="#472b29" d="M49.256,51.265c-0.053,0-0.106-0.017-0.151-0.051c-0.109-0.084-0.131-0.241-0.048-0.351l1.623-2.136 c0.014-0.018,0.03-0.034,0.048-0.048l17.678-13.435c0.101-0.076,0.239-0.066,0.328,0.022s0.098,0.229,0.022,0.328l-5.307,6.982 c-0.085,0.109-0.241,0.131-0.351,0.048c-0.109-0.083-0.131-0.241-0.048-0.351l4.197-5.522l-16.19,12.305l-1.603,2.109 C49.405,51.23,49.331,51.265,49.256,51.265z"/></g><g><path fill="#472b29" d="M59.165,48.05c-0.053,0-0.106-0.017-0.151-0.051c-0.109-0.084-0.131-0.241-0.048-0.351l2.824-3.715 c0.085-0.11,0.242-0.131,0.351-0.048c0.109,0.084,0.131,0.241,0.048,0.351l-2.824,3.715C59.314,48.016,59.24,48.05,59.165,48.05z"/></g><g><path fill="#472b29" d="M37.443,66.807c-0.064,0-0.128-0.024-0.177-0.073c-0.089-0.088-0.098-0.229-0.022-0.328l6.401-8.423 c0.085-0.11,0.241-0.131,0.351-0.048c0.109,0.084,0.131,0.24,0.048,0.351l-5.292,6.963l16.19-12.306l2.723-3.582 c0.085-0.11,0.242-0.131,0.351-0.048c0.109,0.083,0.131,0.241,0.048,0.351l-2.743,3.609c-0.014,0.018-0.03,0.034-0.048,0.048 L37.595,66.756C37.55,66.79,37.496,66.807,37.443,66.807z"/></g><g><path fill="#472b29" d="M55.042,53.25c-0.064,0-0.128-0.024-0.177-0.073l-2.271-2.271c-0.098-0.098-0.098-0.256,0-0.354 s0.256-0.098,0.354,0l2.271,2.271c0.098,0.098,0.098,0.256,0,0.354C55.17,53.226,55.106,53.25,55.042,53.25z"/></g><g><path fill="#472b29" d="M51.927,50.135c-0.064,0-0.128-0.024-0.177-0.073l-0.885-0.885c-0.098-0.098-0.098-0.256,0-0.354 c0.099-0.099,0.257-0.097,0.354,0l0.885,0.885c0.098,0.098,0.098,0.256,0,0.354C52.055,50.111,51.99,50.135,51.927,50.135z"/></g><g><path fill="#fdfcef" d="M16.5,54.5c0,0-1.567,0-3.5,0S9.5,52.933,9.5,51c0-1.781,1.335-3.234,3.055-3.455 C12.527,47.366,12.5,47.187,12.5,47c0-1.933,1.567-3.5,3.5-3.5c1.032,0,1.95,0.455,2.59,1.165c0.384-1.808,1.987-3.165,3.91-3.165 c2.209,0,4,1.791,4,4c0,0.191-0.03,0.374-0.056,0.558C26.872,45.714,27.408,45.5,28,45.5c1.228,0,2.245,0.887,2.455,2.055 C30.634,47.527,30.813,47.5,31,47.5c1.933,0,3.5,1.567,3.5,3.5s-1.567,3.5-3.5,3.5s-7.5,0-7.5,0V55h-7V54.5z"/><path fill="#472b29" d="M14.75,50c0.138,0,0.25-0.112,0.25-0.25c0-1.223-0.995-2.218-2.218-2.218 c-0.034,0.009-0.737-0.001-1.244,0.136c-0.133,0.036-0.212,0.173-0.176,0.306c0.036,0.134,0.173,0.213,0.306,0.176 c0.444-0.12,1.1-0.12,1.113-0.118c0.948,0,1.719,0.771,1.719,1.718C14.5,49.888,14.612,50,14.75,50z"/><circle cx="21.5" cy="54.5" r=".5" fill="#472b29"/><path fill="#472b29" d="M13,55h3.5c0.276,0,0.5-0.224,0.5-0.5S16.776,54,16.5,54H13c-1.654,0-3-1.346-3-3 c0-1.496,1.125-2.768,2.618-2.959c0.134-0.018,0.255-0.088,0.336-0.196s0.115-0.244,0.094-0.377C13.025,47.314,13,47.16,13,47 c0-1.654,1.346-3,3-3c0.85,0,1.638,0.355,2.219,1c0.125,0.139,0.321,0.198,0.5,0.148c0.182-0.049,0.321-0.195,0.36-0.379 C19.42,43.165,20.859,42,22.5,42c1.93,0,3.5,1.57,3.5,3.5c0,0.143-0.021,0.28-0.041,0.418c-0.029,0.203,0.063,0.438,0.242,0.54 c0.179,0.102,0.396,0.118,0.556-0.01C27.122,46.155,27.551,46,28,46c0.966,0,1.792,0.691,1.963,1.644 c0.048,0.267,0.296,0.446,0.569,0.405C30.686,48.025,30.84,48,31,48c1.654,0,3,1.346,3,3s-1.346,3-3,3h-7.5 c-0.276,0-0.5,0.224-0.5,0.5s0.224,0.5,0.5,0.5H31c2.206,0,4-1.794,4-4s-1.794-4-4-4c-0.059,0-0.116,0.002-0.174,0.006 C30.412,45.82,29.289,45,28,45c-0.349,0-0.689,0.061-1.011,0.18C26.824,42.847,24.874,41,22.5,41 c-1.831,0-3.466,1.127-4.153,2.774C17.667,43.276,16.845,43,16,43c-2.206,0-4,1.794-4,4c0,0.048,0.001,0.095,0.004,0.142 C10.261,47.59,9,49.169,9,51C9,53.206,10.794,55,13,55z"/><path fill="#472b29" d="M18.5,54c0.159,0,0.841,0,1,0c0.276,0,0.5,0.224,0.5,0.5c0,0.276-0.224,0.5-0.5,0.5 c-0.159,0-0.841,0-1,0c-0.276,0-0.5-0.224-0.5-0.5C18,54.224,18.224,54,18.5,54z"/></g></svg>